<?xml version="1.0" encoding="utf-8"?>
<!-- Generator: Adobe Illustrator 22.0.1, SVG Export Plug-In . SVG Version: 6.00 Build 0)  -->
<svg version="1.1" id="Capa_1" xmlns="http://www.w3.org/2000/svg" xmlns:xlink="http://www.w3.org/1999/xlink" x="0px" y="0px"
	 viewBox="0 0 31.5 32" style="enable-background:new 0 0 31.5 32;" xml:space="preserve">
<style type="text/css">
	.st0{fill:none;}
	.st1{fill:#FFFDFD;}
</style>
<g>
	<path class="st0" d="M9.7,27.9c0.1,0.1,0.3,0,0.5,0c2,0,3.9,0,5.8,0c2,0,4,0,5.9,0c0.6,0,1.1-0.1,1.1-0.7c0.1-0.7-0.5-0.8-1-0.8
		c-0.1,0-0.1,0-0.2,0c-3.8,0-7.6,0-11.4,0c-0.3,0-0.5,0-0.7,0.1C9.3,26.6,9,26.9,9,27.1S9.3,27.6,9.7,27.9z"/>
	<path class="st0" d="M10,23.9c0.1,0,0.1,0,0.2,0c3.9,0,7.9,0,11.8,0c0.5,0,1-0.1,1-0.7s-0.5-0.7-1-0.7c-2,0-3.9,0-5.9,0
		s-4.1,0-6.1,0c-0.5,0-0.9,0.2-0.9,0.7S9.5,23.9,10,23.9z"/>
	<path class="st1" d="M30,13.2c0-1.3-0.8-2.1-2.1-2.1c-8.1,0-16.1,0-24.2,0c-1.6,0-2.3,0.7-2.3,2.3c0,1.4,0,2.9,0,4.3
		c0,1.8,0,3.6,0,5.4c0,0.9,0.6,1.7,1.5,1.8c0.5,0.1,1.1,0,1.7,0c0-2.2,0-4.4,0-6.6c7.3,0,14.6,0,22,0c0.1,2.3,0.1,4.5,0.1,6.7
		c0.3,0,0.6,0,0.8,0c1.8,0.1,2.5-1,2.5-2.5C30,19.4,30,16.4,30,13.2z M25.5,15.9c-0.5,0-1-0.4-1-0.8c0-0.6,0.5-1.1,1-1.1
		s0.9,0.4,0.9,0.9C26.3,15.6,26,15.9,25.5,15.9z"/>
	<path class="st1" d="M25.3,9.4c0-2.1,0-4.2,0-6.2c0-1-0.9-1.7-1.9-1.7c-5,0-10.1,0-15.1,0c-1.1,0-1.9,0.8-1.9,1.9c0,1,0,1.9,0,2.9
		C6.3,7.4,6.3,8.6,6.3,9.6c6.3,0,12.6,0,18.9,0C25.2,9.6,25.3,9.4,25.3,9.4z"/>
	<path class="st1" d="M6.3,20.2c0,2.8,0,5.6,0,8.3c0,1.1,0.9,1.9,2,1.9c5,0,9.9,0,14.9,0c1.2,0,2-0.8,2-2c0-2.6,0-5.2,0-7.9
		c0-0.2,0-0.4,0-0.7c-6.3,0-12.6,0-18.8,0C6.5,19.9,6.3,20.1,6.3,20.2z M10,22.4c2,0,4.1,0,6.1,0s3.9,0,5.9,0c0.5,0,1,0.1,1,0.7
		s-0.5,0.7-1,0.7c-3.9,0-7.9,0-11.8,0c-0.1,0-0.1,0-0.2,0c-0.5,0-0.9-0.2-0.9-0.7S9.5,22.4,10,22.4z M9.7,26.4
		c0.2-0.1,0.4-0.1,0.7-0.1c3.8,0,7.6,0,11.4,0c0.1,0,0.1,0,0.2,0c0.5,0,1.1,0.1,1,0.8c0,0.6-0.5,0.7-1.1,0.7c-1.9,0-3.9,0-5.9,0
		c-1.9,0-3.8,0-5.8,0c-0.2,0-0.4,0.1-0.5,0C9.3,27.6,9,27.4,9,27.1S9.3,26.6,9.7,26.4z"/>
</g>
</svg>
