<?xml version="1.0" encoding="utf-8"?>
<!-- Generator: Adobe Illustrator 22.0.1, SVG Export Plug-In . SVG Version: 6.00 Build 0)  -->
<svg version="1.1" id="Capa_1" xmlns="http://www.w3.org/2000/svg" xmlns:xlink="http://www.w3.org/1999/xlink" x="0px" y="0px"
	 viewBox="0 0 31.5 32" style="enable-background:new 0 0 31.5 32;" xml:space="preserve">
<style type="text/css">
	.st0{fill:#FFFFFF;}
</style>
<path id="XMLID_1695_" class="st0" d="M17.1,5.3h-4c-0.9,0-1.5,0.7-1.5,1.4v6.1H5.5c-0.9,0-1.5,0.7-1.5,1.5v4c0,0.9,0.7,1.5,1.5,1.5
	h6.1v6.1c0,0.9,0.7,1.5,1.5,1.5h4c0.9,0,1.5-0.7,1.5-1.5v-6.1h6.1c0.9,0,1.5-0.7,1.5-1.5v-4c0-0.9-0.7-1.5-1.5-1.5h-6.1V6.7
	C18.6,6,18,5.3,17.1,5.3z"/>
</svg>
