<?xml version="1.0" encoding="utf-8"?>
<!-- Generator: Adobe Illustrator 22.0.1, SVG Export Plug-In . SVG Version: 6.00 Build 0)  -->
<svg version="1.1" id="Capa_1" xmlns="http://www.w3.org/2000/svg" xmlns:xlink="http://www.w3.org/1999/xlink" x="0px" y="0px"
	 viewBox="0 0 35.7 35.7" style="enable-background:new 0 0 35.7 35.7;" xml:space="preserve">
<style type="text/css">
	.st0{display:none;}
	.st1{display:inline;}
	.st2{fill:#272525;}
	.st3{fill:#FFFFFF;}
	.st4{fill:#FFFFFF;stroke:#FFFFFF;stroke-width:1.7;stroke-miterlimit:10;}
</style>
<g id="Capa_1_1_" class="st0">
	<g id="XMLID_1_" class="st1">
		<path id="XMLID_141_" class="st2" d="M17.9,12.4c1.2,0,2.2-1,2.2-2.2v-8c0-1.2-1-2.2-2.2-2.2s-2.2,1-2.2,2.2v8
			C15.6,11.4,16.6,12.4,17.9,12.4z M17,2.2c0-0.5,0.4-0.9,0.9-0.9s0.9,0.4,0.9,0.9v8c0,0.5-0.4,0.9-0.9,0.9S17,10.7,17,10.2V2.2z"/>
		<path id="XMLID_135_" class="st2" d="M15.6,33.5c0,1.2,1,2.2,2.2,2.2s2.2-1,2.2-2.2v-8c0-1.2-1-2.2-2.2-2.2s-2.2,1-2.2,2.2
			C15.6,25.5,15.6,33.5,15.6,33.5z M17,25.5c0-0.5,0.4-0.9,0.9-0.9s0.9,0.4,0.9,0.9v8c0,0.5-0.4,0.9-0.9,0.9S17,34,17,33.5V25.5z"/>
		<path id="XMLID_132_" class="st2" d="M28.9,4.6c-0.6,0-1.1,0.2-1.6,0.6l-5.6,5.6c-0.4,0.4-0.6,1-0.6,1.6s0.2,1.1,0.6,1.6
			c0.4,0.4,1,0.6,1.6,0.6s1.1-0.2,1.6-0.6l5.6-5.6c0.4-0.4,0.6-1,0.6-1.6s-0.2-1.1-0.6-1.6C30.1,4.8,29.5,4.6,28.9,4.6z M22.6,13.1
			c-0.2-0.2-0.3-0.4-0.3-0.6c0-0.2,0.1-0.5,0.3-0.6l5.6-5.6C28.4,6.1,28.6,6,28.8,6s0.5,0.1,0.6,0.3c0.2,0.2,0.3,0.4,0.3,0.6
			s-0.1,0.5-0.3,0.6l-5.6,5.6C23.6,13.4,23,13.4,22.6,13.1z"/>
		<path id="XMLID_82_" class="st2" d="M14.6,23.3c0-0.6-0.2-1.1-0.6-1.6c-0.9-0.9-2.3-0.9-3.1,0l-5.6,5.6c-0.4,0.4-0.6,1-0.6,1.6
			s0.2,1.1,0.6,1.6c0.4,0.4,1,0.6,1.6,0.6s1.1-0.2,1.6-0.6l5.6-5.6C14.4,24.4,14.6,23.9,14.6,23.3z M13.1,23.9l-5.6,5.6
			c-0.3,0.3-0.9,0.3-1.3,0c-0.2-0.2-0.3-0.4-0.3-0.6s0.1-0.5,0.3-0.6l5.6-5.6c0.2-0.2,0.4-0.3,0.6-0.3c0.2,0,0.5,0.1,0.6,0.3
			c0.2,0.2,0.3,0.4,0.3,0.6C13.3,23.5,13.2,23.7,13.1,23.9z"/>
		<path id="XMLID_79_" class="st2" d="M23.3,17.9c0,1.2,1,2.2,2.2,2.2h8c1.2,0,2.2-1,2.2-2.2s-1-2.2-2.2-2.2h-8
			C24.3,15.6,23.3,16.6,23.3,17.9z M34.4,17.9c0,0.5-0.4,0.9-0.9,0.9h-8c-0.5,0-0.9-0.4-0.9-0.9S25,17,25.5,17h8
			C34,17,34.4,17.4,34.4,17.9z"/>
		<path id="XMLID_76_" class="st2" d="M2.2,20.1h8c1.2,0,2.2-1,2.2-2.2s-1-2.2-2.2-2.2h-8c-1.2,0-2.2,1-2.2,2.2S1,20.1,2.2,20.1z
			 M2.2,17h8c0.5,0,0.9,0.4,0.9,0.9s-0.4,0.9-0.9,0.9h-8c-0.5,0-0.9-0.4-0.9-0.9C1.3,17.4,1.7,17,2.2,17z"/>
		<path id="XMLID_73_" class="st2" d="M10.9,14c0.4,0.4,1,0.6,1.6,0.6s1.1-0.2,1.6-0.6c0.4-0.4,0.6-1,0.6-1.6s-0.2-1.1-0.6-1.6
			L8.4,5.2c-0.9-0.9-2.3-0.9-3.1,0c-0.4,0.4-0.6,1-0.6,1.6s0.2,1.1,0.6,1.6L10.9,14z M6.2,6.2C6.3,6,6.6,5.9,6.8,5.9
			C7,5.9,7.2,6,7.4,6.2l5.6,5.6c0.2,0.2,0.3,0.4,0.3,0.6c0,0.2-0.1,0.5-0.3,0.6c-0.3,0.3-0.9,0.3-1.3,0L6.2,7.4C6,7.3,5.9,7,5.9,6.8
			C5.9,6.6,6,6.3,6.2,6.2z"/>
		<path id="XMLID_59_" class="st2" d="M26.7,29.3c0.5,0.4,1,0.5,1.6,0.5c0.6-0.1,1.1-0.4,1.5-0.8c0.8-0.9,0.6-2.3-0.3-3.1l-6.2-5
			c-0.5-0.4-1-0.5-1.6-0.5c-0.6,0.1-1.1,0.3-1.5,0.8s-0.5,1-0.5,1.6c0.1,0.6,0.3,1.1,0.8,1.5L26.7,29.3z M28.2,28.4
			c-0.2,0-0.5,0-0.7-0.2l-6.2-5c-0.3-0.3-0.3-0.9,0-1.2c0.1-0.2,0.4-0.3,0.6-0.3s0.5,0,0.7,0.2l6.2,5c0.2,0.2,0.3,0.4,0.3,0.6
			s0,0.5-0.2,0.7C28.7,28.3,28.5,28.4,28.2,28.4z"/>
	</g>
</g>
<g id="Capa_2_1_">
	<g>
		<path id="XMLID_10_" class="st3" d="M30,5.7c0.2-0.2,0.7-0.2,1.1,0.2c0.3,0.3,0.4,0.8,0.2,1.1l-4,4c-0.2,0.2-0.7,0.2-1.1-0.2
			c-0.3-0.3-0.4-0.8-0.2-1.1L30,5.7z"/>
		<path id="XMLID_2_" class="st3" d="M17.5,1c0-0.3,0.4-0.6,0.9-0.6s0.9,0.3,0.9,0.6v5.7c0,0.3-0.4,0.6-0.9,0.6S17.5,7,17.5,6.7V1z"
			/>
		<path id="XMLID_4_" class="st3" d="M6.3,17.2c0.3,0,0.6,0.4,0.6,0.8c0,0.5-0.3,0.8-0.6,0.8H0.6C0.3,18.9,0,18.5,0,18
			s0.3-0.8,0.6-0.8H6.3z"/>
		<path id="XMLID_5_" class="st3" d="M29.4,18.9c-0.3,0-0.6-0.4-0.6-0.8c0-0.5,0.3-0.8,0.6-0.8h5.7c0.3,0,0.6,0.4,0.6,0.8
			c0,0.5-0.3,0.8-0.6,0.8H29.4z"/>
		<path id="XMLID_6_" class="st3" d="M5.2,6.1C4.9,5.9,5,5.4,5.3,5.1s0.8-0.4,1.1-0.2l4,4c0.2,0.2,0.2,0.7-0.2,1.1
			c-0.3,0.3-0.8,0.4-1.1,0.2L5.2,6.1z"/>
		<path id="XMLID_8_" class="st3" d="M8.6,26.5c0.2-0.2,0.7-0.2,1.1,0.2c0.3,0.3,0.3,0.8,0.1,1l-4,4C5.5,32,5,31.9,4.7,31.6
			s-0.4-0.8-0.2-1.1L8.6,26.5z"/>
		<path id="XMLID_7_" class="st3" d="M17.5,29.4c0-0.3,0.4-0.6,0.9-0.6s0.9,0.3,0.9,0.6V35c0,0.3-0.4,0.6-0.9,0.6s-0.9-0.3-0.9-0.6
			V29.4z"/>
		<path id="XMLID_3_" class="st3" d="M26.9,26.7c-0.2-0.2-0.2-0.7,0.2-1.1c0.3-0.3,0.8-0.4,1.1-0.2l4,4c0.2,0.2,0.2,0.7-0.2,1.1
			c-0.3,0.3-0.8,0.4-1.1,0.2L26.9,26.7z"/>
	</g>
	<ellipse class="st4" cx="17.9" cy="18" rx="8.9" ry="8.8"/>
</g>
</svg>
