<?xml version="1.0" encoding="utf-8"?>
<!-- Generator: Adobe Illustrator 22.0.1, SVG Export Plug-In . SVG Version: 6.00 Build 0)  -->
<svg version="1.1" id="Capa_1" xmlns="http://www.w3.org/2000/svg" xmlns:xlink="http://www.w3.org/1999/xlink" x="0px" y="0px"
	 viewBox="0 0 31.5 32" style="enable-background:new 0 0 31.5 32;" xml:space="preserve">
<style type="text/css">
	.st0{fill:#FFFFFF;}
</style>
<g id="XMLID_236_">
	<path id="XMLID_18_" class="st0" d="M8.6,20.6c-1.6,0-3.1-0.3-4.6-0.9c-0.3-0.1-0.7-0.1-0.9,0.2c-0.2,0.2-0.3,0.6-0.2,0.9
		c2.1,5,7,8.2,12.4,8.2c7.4,0,13.4-6,13.4-13.4c0-5.4-3.2-10.3-8.2-12.4c-0.3-0.1-0.7-0.1-0.9,0.2c-0.2,0.2-0.3,0.6-0.2,0.9
		c0.6,1.5,0.9,3,0.9,4.6C20.4,15.3,15.1,20.6,8.6,20.6z"/>
</g>
</svg>
